<svg width="35" height="35" viewBox="0 0 35 35" fill="none" xmlns="http://www.w3.org/2000/svg">
<circle cx="17.5" cy="17.5" r="17.5" fill="#F1F1F1"/>
<path d="M27.2883 14.6626L22.0835 9.4579C21.9547 9.32912 21.8023 9.26471 21.6261 9.26471C21.4499 9.26471 21.2973 9.32912 21.1687 9.4579C21.0399 9.58676 20.9754 9.73925 20.9754 9.91543V12.5178H18.6983C13.8662 12.5178 10.9014 13.8834 9.80337 16.6145C9.44429 17.5225 9.26477 18.651 9.26477 19.9996C9.26477 21.1245 9.69513 22.6527 10.5558 24.5842C10.5761 24.6317 10.6115 24.7129 10.6624 24.828C10.7133 24.9432 10.759 25.0448 10.7997 25.133C10.8405 25.221 10.8846 25.2955 10.9319 25.3565C11.0132 25.4717 11.1081 25.5295 11.2166 25.5295C11.3182 25.5295 11.3979 25.4956 11.4555 25.4279C11.513 25.3601 11.5418 25.2753 11.5418 25.1739C11.5418 25.1127 11.5333 25.0231 11.5164 24.9044C11.4994 24.7857 11.4909 24.7063 11.4909 24.6656C11.457 24.2049 11.44 23.7878 11.44 23.4153C11.44 22.7309 11.4994 22.1176 11.6179 21.5755C11.7366 21.0332 11.9009 20.564 12.111 20.1675C12.3211 19.7709 12.5921 19.4289 12.9243 19.1408C13.2563 18.8528 13.6138 18.6174 13.9967 18.4344C14.3796 18.2513 14.8303 18.1073 15.3487 18.0023C15.8671 17.8973 16.3889 17.8244 16.9142 17.7837C17.4395 17.743 18.0342 17.7228 18.6983 17.7228H20.9754V20.3252C20.9754 20.5014 21.0397 20.6539 21.1684 20.7826C21.2973 20.9112 21.4497 20.9757 21.6258 20.9757C21.802 20.9757 21.9545 20.9112 22.0835 20.7826L27.2882 15.5777C27.417 15.449 27.4813 15.2965 27.4813 15.1203C27.4813 14.9441 27.417 14.7916 27.2883 14.6626Z" fill="#D1D1D1"/>
</svg>
