<svg width="35" height="35" viewBox="0 0 35 35" fill="none" xmlns="http://www.w3.org/2000/svg">
<circle cx="17.3114" cy="17.3114" r="17.3114" fill="#9465FB"/>
<path d="M17.3952 16.6707C18.5864 16.6707 19.6178 16.2434 20.4606 15.4005C21.3034 14.5577 21.7307 13.5265 21.7307 12.3352C21.7307 11.1443 21.3034 10.1129 20.4605 9.26988C19.6176 8.42723 18.5862 8 17.3952 8C16.2038 8 15.1726 8.42723 14.3298 9.27001C13.4871 10.1128 13.0597 11.1441 13.0597 12.3352C13.0597 13.5265 13.4871 14.5579 14.33 15.4006C15.1729 16.2433 16.2043 16.6707 17.3952 16.6707Z" fill="white"/>
<path d="M24.9811 21.8411C24.9568 21.4903 24.9076 21.1077 24.8353 20.7037C24.7622 20.2967 24.6681 19.9119 24.5555 19.5602C24.4392 19.1967 24.281 18.8377 24.0854 18.4937C23.8825 18.1366 23.6441 17.8257 23.3765 17.5699C23.0968 17.3022 22.7543 17.087 22.3582 16.9301C21.9636 16.7739 21.5262 16.6948 21.0583 16.6948C20.8745 16.6948 20.6968 16.7702 20.3537 16.9936C20.1424 17.1314 19.8954 17.2907 19.6196 17.4669C19.3838 17.6171 19.0644 17.7579 18.6699 17.8853C18.2849 18.0099 17.8941 18.073 17.5083 18.073C17.1226 18.073 16.7319 18.0099 16.3465 17.8853C15.9524 17.758 15.633 17.6172 15.3974 17.467C15.1243 17.2925 14.8771 17.1332 14.6627 16.9935C14.32 16.7701 14.1421 16.6947 13.9584 16.6947C13.4904 16.6947 13.0531 16.7739 12.6586 16.9302C12.2628 17.0869 11.9201 17.3021 11.6401 17.57C11.3727 17.826 11.1342 18.1368 10.9315 18.4937C10.7361 18.8377 10.5779 19.1965 10.4614 19.5603C10.349 19.912 10.2549 20.2967 10.1818 20.7037C10.1095 21.1072 10.0603 21.4899 10.036 21.8415C10.0121 22.1859 10 22.5434 10 22.9044C10 23.844 10.2987 24.6047 10.8877 25.1656C11.4694 25.7192 12.2392 26.0001 13.1752 26.0001H21.8423C22.7783 26.0001 23.5478 25.7194 24.1297 25.1656C24.7188 24.6051 25.0175 23.8443 25.0175 22.9043C25.0173 22.5416 25.0051 22.1838 24.9811 21.8411Z" fill="white"/>
</svg>
